# xmcd
#
# Track frame offsets:
#	150
#	19734
#	39342
#	57613
#	74350
#	90962
#	111165
#	127279
#	145280
#	159525
#	179695
#	199236
#	217327
#	236396
#	253923
#	276056
#	295487
#	312938
#	327544
#
# Disc length: 4760 seconds
#
# Revision: 1
# Processed by: cddbd v1.5.2PL0 Copyright (c) Steve Scherf et al.
# Submitted via: audiograbber 1.83.01
#
DISCID=35129613
DTITLE=Various Artist - Soft Rock Ballads - CD2
DYEAR=2006
DGENRE=Ballad
TTITLE0=Train - Drops Of Jupiter
TTITLE1=Soul Asylum - Runaway Train
TTITLE2=Natalie Imbruglia - Torn
TTITLE3=Fleetwood Mac - Everywhere
TTITLE4=Belinda Carlisle - Circle In The Sand
TTITLE5=Roxy Music - More Than This
TTITLE6=Mike And The Mechanics - Over My Shoulder
TTITLE7=Toto - Rosanna
TTITLE8=Stranglers (The) - Golden Brown
TTITLE9=Genesis - Tonight Tonight Tonight
TTITLE10=Stevie Nicks - Rooms On Fire
TTITLE11=John Waite - Missing You
TTITLE12=Heart - These Dreams
TTITLE13=Crowded House - Don't Dream It's Over
TTITLE14=Verve (The) - Lucky Man
TTITLE15=Robbie Williams - She's The One
TTITLE16=Bangles (The) - Eternal Flame
TTITLE17=Pretenders (The) - I'll Stand By You
TTITLE18=Pandora's Box - It's All Coming Back To Me Now
EXTD=
EXTT0=
EXTT1=
EXTT2=
EXTT3=
EXTT4=
EXTT5=
EXTT6=
EXTT7=
EXTT8=
EXTT9=
EXTT10=
EXTT11=
EXTT12=
EXTT13=
EXTT14=
EXTT15=
EXTT16=
EXTT17=
EXTT18=
PLAYORDER=
